<mxfile host="app.diagrams.net" modified="2022-12-15T16:31:04.968Z" agent="5.0 (Macintosh; Intel Mac OS X 10_15_7) AppleWebKit/537.36 (KHTML, like Gecko) Chrome/108.0.0.0 Safari/537.36" etag="j2dRxOp04L7INTCty6US" version="20.6.2" type="github">
  <diagram id="0Iac3pBhHl1lduyDzEGC" name="第 1 页">
    <mxGraphModel dx="2253" dy="842" grid="1" gridSize="10" guides="1" tooltips="1" connect="1" arrows="1" fold="1" page="1" pageScale="1" pageWidth="827" pageHeight="1169" math="0" shadow="0">
      <root>
        <mxCell id="0" />
        <mxCell id="1" parent="0" />
        <mxCell id="gX7BSSD_EET0P1-Cjivz-8" value="&lt;font color=&quot;#4d4d4d&quot;&gt;1001&lt;/font&gt;" style="rounded=1;whiteSpace=wrap;html=1;strokeWidth=2;fillWeight=4;hachureGap=12;hachureAngle=45;fillColor=#95D2F5;sketch=1;fontSize=24;strokeColor=#949494;" parent="1" vertex="1">
          <mxGeometry x="-20" y="460" width="240" height="120" as="geometry" />
        </mxCell>
        <mxCell id="gX7BSSD_EET0P1-Cjivz-17" value="&lt;font color=&quot;#ff3399&quot;&gt;215628&lt;/font&gt;&lt;font color=&quot;#4d4d4d&quot;&gt;1001&lt;/font&gt;" style="whiteSpace=wrap;html=1;fontSize=24;fillColor=#95D2F5;strokeColor=#949494;rounded=1;strokeWidth=2;fillWeight=4;hachureGap=12;hachureAngle=45;sketch=1;" parent="1" vertex="1">
          <mxGeometry x="460" y="460" width="250" height="120" as="geometry" />
        </mxCell>
        <mxCell id="gX7BSSD_EET0P1-Cjivz-19" value="" style="edgeStyle=segmentEdgeStyle;endArrow=classic;html=1;rounded=0;shadow=0;sketch=1;strokeWidth=2;fontSize=24;entryX=0;entryY=0.5;entryDx=0;entryDy=0;shape=flexArrow;exitX=1;exitY=0.5;exitDx=0;exitDy=0;fillColor=#95D2F5;strokeColor=#949494;sketchStyle=rough;" parent="1" source="gX7BSSD_EET0P1-Cjivz-8" target="gX7BSSD_EET0P1-Cjivz-17" edge="1">
          <mxGeometry width="50" height="50" relative="1" as="geometry">
            <mxPoint x="280" y="520" as="sourcePoint" />
            <mxPoint x="330" y="470" as="targetPoint" />
            <Array as="points" />
          </mxGeometry>
        </mxCell>
        <mxCell id="gX7BSSD_EET0P1-Cjivz-37" value="" style="edgeStyle=orthogonalEdgeStyle;shape=flexArrow;rounded=0;sketch=1;orthogonalLoop=1;jettySize=auto;html=1;shadow=0;strokeColor=#949494;strokeWidth=2;fontSize=24;fontColor=#000000;startArrow=none;endArrow=block;endFill=0;fillColor=#95D2F5;entryX=0.5;entryY=0;entryDx=0;entryDy=0;startFill=0;" parent="1" source="gX7BSSD_EET0P1-Cjivz-20" target="gX7BSSD_EET0P1-Cjivz-33" edge="1">
          <mxGeometry relative="1" as="geometry">
            <mxPoint x="1065" y="690" as="targetPoint" />
          </mxGeometry>
        </mxCell>
        <mxCell id="gX7BSSD_EET0P1-Cjivz-20" value="&lt;font color=&quot;#4d4d4d&quot;&gt;2156281001&lt;/font&gt;&lt;font color=&quot;#ff3399&quot;&gt;&lt;b&gt;6&lt;/b&gt;&lt;/font&gt;" style="whiteSpace=wrap;html=1;fontSize=24;fillColor=#95D2F5;strokeColor=#949494;rounded=1;strokeWidth=2;fillWeight=4;hachureGap=12;hachureAngle=45;sketch=1;" parent="1" vertex="1">
          <mxGeometry x="940" y="460" width="250" height="120" as="geometry" />
        </mxCell>
        <mxCell id="gX7BSSD_EET0P1-Cjivz-21" value="" style="edgeStyle=segmentEdgeStyle;endArrow=classic;html=1;rounded=0;shadow=0;sketch=1;strokeColor=#949494;strokeWidth=2;fontSize=24;entryX=0;entryY=0.5;entryDx=0;entryDy=0;shape=flexArrow;fillColor=#95D2F5;" parent="1" target="gX7BSSD_EET0P1-Cjivz-20" edge="1">
          <mxGeometry width="50" height="50" relative="1" as="geometry">
            <mxPoint x="710" y="519.5" as="sourcePoint" />
            <mxPoint x="880" y="519.5" as="targetPoint" />
            <Array as="points" />
          </mxGeometry>
        </mxCell>
        <mxCell id="gX7BSSD_EET0P1-Cjivz-22" value="&lt;span style=&quot;color: rgb(77, 77, 77);&quot;&gt;21562810016&lt;/span&gt;&lt;font color=&quot;#4d4d4d&quot;&gt;1&lt;/font&gt;&lt;font color=&quot;#ff3399&quot;&gt;&lt;b&gt;001&lt;/b&gt;&lt;/font&gt;" style="whiteSpace=wrap;html=1;fontSize=24;fillColor=#95D2F5;strokeColor=#949494;rounded=1;strokeWidth=2;fillWeight=4;hachureGap=12;hachureAngle=45;sketch=1;" parent="1" vertex="1">
          <mxGeometry x="460" y="720" width="250" height="120" as="geometry" />
        </mxCell>
        <mxCell id="gX7BSSD_EET0P1-Cjivz-26" value="序号ID" style="text;html=1;strokeColor=none;fillColor=none;align=center;verticalAlign=middle;whiteSpace=wrap;rounded=0;hachureGap=12;fontSize=24;" parent="1" vertex="1">
          <mxGeometry x="40" y="590" width="120" height="30" as="geometry" />
        </mxCell>
        <mxCell id="gX7BSSD_EET0P1-Cjivz-27" value="哈希padding至10位" style="text;html=1;strokeColor=none;fillColor=none;align=center;verticalAlign=middle;whiteSpace=wrap;rounded=0;hachureGap=12;fontSize=24;fontColor=#666666;" parent="1" vertex="1">
          <mxGeometry x="220" y="485" width="240" height="20" as="geometry" />
        </mxCell>
        <mxCell id="gX7BSSD_EET0P1-Cjivz-28" value="添加padding长度" style="text;html=1;strokeColor=none;fillColor=none;align=center;verticalAlign=middle;whiteSpace=wrap;rounded=0;hachureGap=12;fontSize=24;fontColor=#666666;" parent="1" vertex="1">
          <mxGeometry x="720" y="485" width="210" height="20" as="geometry" />
        </mxCell>
        <mxCell id="gX7BSSD_EET0P1-Cjivz-29" value="添加mark_id: 1" style="text;html=1;strokeColor=none;fillColor=none;align=center;verticalAlign=middle;whiteSpace=wrap;rounded=0;hachureGap=12;fontSize=24;fontColor=#666666;" parent="1" vertex="1">
          <mxGeometry x="1060" y="640" width="210" height="20" as="geometry" />
        </mxCell>
        <mxCell id="gX7BSSD_EET0P1-Cjivz-33" value="&lt;span style=&quot;color: rgb(77, 77, 77);&quot;&gt;2156281001&lt;/span&gt;&lt;font color=&quot;#4d4d4d&quot;&gt;6&lt;/font&gt;&lt;font color=&quot;#ff3399&quot;&gt;&lt;b&gt;1&lt;/b&gt;&lt;/font&gt;" style="whiteSpace=wrap;html=1;fontSize=24;fillColor=#95D2F5;strokeColor=#949494;rounded=1;strokeWidth=2;fillWeight=4;hachureGap=12;hachureAngle=45;sketch=1;" parent="1" vertex="1">
          <mxGeometry x="940" y="720" width="250" height="120" as="geometry" />
        </mxCell>
        <mxCell id="gX7BSSD_EET0P1-Cjivz-34" value="" style="edgeStyle=segmentEdgeStyle;endArrow=none;html=1;rounded=0;shadow=0;sketch=1;strokeColor=#949494;strokeWidth=2;fontSize=24;shape=flexArrow;startArrow=block;endFill=0;entryX=0;entryY=0.5;entryDx=0;entryDy=0;fillColor=#95D2F5;" parent="1" source="gX7BSSD_EET0P1-Cjivz-22" target="gX7BSSD_EET0P1-Cjivz-33" edge="1">
          <mxGeometry width="50" height="50" relative="1" as="geometry">
            <mxPoint x="730" y="780" as="sourcePoint" />
            <mxPoint x="860" y="760" as="targetPoint" />
            <Array as="points" />
          </mxGeometry>
        </mxCell>
        <mxCell id="gX7BSSD_EET0P1-Cjivz-38" value="添加业务标识：001" style="text;html=1;strokeColor=none;fillColor=none;align=center;verticalAlign=middle;whiteSpace=wrap;rounded=0;hachureGap=12;fontSize=24;fontColor=#666666;" parent="1" vertex="1">
          <mxGeometry x="720" y="735" width="220" height="30" as="geometry" />
        </mxCell>
        <mxCell id="gX7BSSD_EET0P1-Cjivz-43" value="新ID" style="text;html=1;strokeColor=none;fillColor=none;align=center;verticalAlign=middle;whiteSpace=wrap;rounded=0;hachureGap=12;fontSize=24;" parent="1" vertex="1">
          <mxGeometry x="560" y="850" width="80" height="30" as="geometry" />
        </mxCell>
        <mxCell id="M5H84TZtUbWAZS--ligj-1" value="&lt;font style=&quot;font-size: 30px;&quot;&gt;序号ID&lt;/font&gt;&lt;font color=&quot;#ff6666&quot; style=&quot;font-size: 30px;&quot;&gt;小于&lt;/font&gt;一百亿的场景" style="text;html=1;strokeColor=none;fillColor=none;align=center;verticalAlign=middle;whiteSpace=wrap;rounded=0;shadow=0;glass=0;sketch=0;fillWeight=10;hachureGap=12;jiggle=2;strokeWidth=2;fontFamily=Tahoma;fontSize=30;fontColor=#007FFF;fontStyle=0" vertex="1" parent="1">
          <mxGeometry x="-50" y="350" width="424.99" height="60" as="geometry" />
        </mxCell>
        <mxCell id="M5H84TZtUbWAZS--ligj-2" value="&lt;font color=&quot;#4d4d4d&quot;&gt;1000022301&lt;/font&gt;" style="rounded=1;whiteSpace=wrap;html=1;strokeWidth=2;fillWeight=4;hachureGap=12;hachureAngle=45;fillColor=#95D2F5;sketch=1;fontSize=24;strokeColor=#949494;" vertex="1" parent="1">
          <mxGeometry x="10" y="1090" width="240" height="120" as="geometry" />
        </mxCell>
        <mxCell id="M5H84TZtUbWAZS--ligj-3" value="&lt;font color=&quot;#ff3399&quot;&gt;&lt;b&gt;81032200001&lt;/b&gt;&lt;/font&gt;" style="whiteSpace=wrap;html=1;fontSize=24;fillColor=#95D2F5;strokeColor=#949494;rounded=1;strokeWidth=2;fillWeight=4;hachureGap=12;hachureAngle=45;sketch=1;" vertex="1" parent="1">
          <mxGeometry x="490" y="1090" width="250" height="120" as="geometry" />
        </mxCell>
        <mxCell id="M5H84TZtUbWAZS--ligj-4" value="" style="edgeStyle=segmentEdgeStyle;endArrow=classic;html=1;rounded=0;shadow=0;sketch=1;strokeWidth=2;fontSize=24;entryX=0;entryY=0.5;entryDx=0;entryDy=0;shape=flexArrow;exitX=1;exitY=0.5;exitDx=0;exitDy=0;fillColor=#95D2F5;strokeColor=#949494;sketchStyle=rough;" edge="1" parent="1" source="M5H84TZtUbWAZS--ligj-2" target="M5H84TZtUbWAZS--ligj-3">
          <mxGeometry width="50" height="50" relative="1" as="geometry">
            <mxPoint x="310" y="1150" as="sourcePoint" />
            <mxPoint x="360" y="1100" as="targetPoint" />
            <Array as="points" />
          </mxGeometry>
        </mxCell>
        <mxCell id="M5H84TZtUbWAZS--ligj-5" value="" style="edgeStyle=orthogonalEdgeStyle;shape=flexArrow;rounded=0;sketch=1;orthogonalLoop=1;jettySize=auto;html=1;shadow=0;strokeColor=#949494;strokeWidth=2;fontSize=24;fontColor=#000000;startArrow=none;endArrow=block;endFill=0;fillColor=#95D2F5;entryX=0.5;entryY=0;entryDx=0;entryDy=0;startFill=0;" edge="1" parent="1" source="M5H84TZtUbWAZS--ligj-6" target="M5H84TZtUbWAZS--ligj-15">
          <mxGeometry relative="1" as="geometry">
            <mxPoint x="1095" y="1320" as="targetPoint" />
          </mxGeometry>
        </mxCell>
        <mxCell id="M5H84TZtUbWAZS--ligj-6" value="&lt;font color=&quot;#ff3399&quot;&gt;&lt;b&gt;1&lt;/b&gt;&lt;/font&gt;&lt;font color=&quot;#4d4d4d&quot;&gt;81032200001&lt;/font&gt;" style="whiteSpace=wrap;html=1;fontSize=24;fillColor=#95D2F5;strokeColor=#949494;rounded=1;strokeWidth=2;fillWeight=4;hachureGap=12;hachureAngle=45;sketch=1;" vertex="1" parent="1">
          <mxGeometry x="970" y="1090" width="250" height="120" as="geometry" />
        </mxCell>
        <mxCell id="M5H84TZtUbWAZS--ligj-7" value="" style="edgeStyle=segmentEdgeStyle;endArrow=classic;html=1;rounded=0;shadow=0;sketch=1;strokeColor=#949494;strokeWidth=2;fontSize=24;entryX=0;entryY=0.5;entryDx=0;entryDy=0;shape=flexArrow;fillColor=#95D2F5;" edge="1" parent="1" target="M5H84TZtUbWAZS--ligj-6">
          <mxGeometry width="50" height="50" relative="1" as="geometry">
            <mxPoint x="740" y="1149.5" as="sourcePoint" />
            <mxPoint x="910" y="1149.5" as="targetPoint" />
            <Array as="points" />
          </mxGeometry>
        </mxCell>
        <mxCell id="M5H84TZtUbWAZS--ligj-8" value="&lt;font color=&quot;#4d4d4d&quot;&gt;1810322000012&lt;/font&gt;&lt;font color=&quot;#ff3399&quot;&gt;&lt;b&gt;001&lt;/b&gt;&lt;/font&gt;" style="whiteSpace=wrap;html=1;fontSize=24;fillColor=#95D2F5;strokeColor=#949494;rounded=1;strokeWidth=2;fillWeight=4;hachureGap=12;hachureAngle=45;sketch=1;" vertex="1" parent="1">
          <mxGeometry x="490" y="1350" width="250" height="120" as="geometry" />
        </mxCell>
        <mxCell id="M5H84TZtUbWAZS--ligj-11" value="序号ID" style="text;html=1;strokeColor=none;fillColor=none;align=center;verticalAlign=middle;whiteSpace=wrap;rounded=0;hachureGap=12;fontSize=24;" vertex="1" parent="1">
          <mxGeometry x="70" y="1220" width="120" height="30" as="geometry" />
        </mxCell>
        <mxCell id="M5H84TZtUbWAZS--ligj-12" value="逆序放置" style="text;html=1;strokeColor=none;fillColor=none;align=center;verticalAlign=middle;whiteSpace=wrap;rounded=0;hachureGap=12;fontSize=24;fontColor=#666666;" vertex="1" parent="1">
          <mxGeometry x="250" y="1115" width="240" height="20" as="geometry" />
        </mxCell>
        <mxCell id="M5H84TZtUbWAZS--ligj-13" value="添加seed长度" style="text;html=1;strokeColor=none;fillColor=none;align=center;verticalAlign=middle;whiteSpace=wrap;rounded=0;hachureGap=12;fontSize=24;fontColor=#666666;" vertex="1" parent="1">
          <mxGeometry x="750" y="1115" width="210" height="20" as="geometry" />
        </mxCell>
        <mxCell id="M5H84TZtUbWAZS--ligj-14" value="添加mark_id: 2" style="text;html=1;strokeColor=none;fillColor=none;align=center;verticalAlign=middle;whiteSpace=wrap;rounded=0;hachureGap=12;fontSize=24;fontColor=#666666;" vertex="1" parent="1">
          <mxGeometry x="1090" y="1270" width="210" height="20" as="geometry" />
        </mxCell>
        <mxCell id="M5H84TZtUbWAZS--ligj-15" value="&lt;font color=&quot;#4d4d4d&quot;&gt;181032200001&lt;/font&gt;&lt;font color=&quot;#ff3399&quot;&gt;&lt;b&gt;2&lt;/b&gt;&lt;/font&gt;" style="whiteSpace=wrap;html=1;fontSize=24;fillColor=#95D2F5;strokeColor=#949494;rounded=1;strokeWidth=2;fillWeight=4;hachureGap=12;hachureAngle=45;sketch=1;" vertex="1" parent="1">
          <mxGeometry x="970" y="1350" width="250" height="120" as="geometry" />
        </mxCell>
        <mxCell id="M5H84TZtUbWAZS--ligj-16" value="" style="edgeStyle=segmentEdgeStyle;endArrow=none;html=1;rounded=0;shadow=0;sketch=1;strokeColor=#949494;strokeWidth=2;fontSize=24;shape=flexArrow;startArrow=block;endFill=0;entryX=0;entryY=0.5;entryDx=0;entryDy=0;fillColor=#95D2F5;" edge="1" parent="1" source="M5H84TZtUbWAZS--ligj-8" target="M5H84TZtUbWAZS--ligj-15">
          <mxGeometry width="50" height="50" relative="1" as="geometry">
            <mxPoint x="760" y="1410" as="sourcePoint" />
            <mxPoint x="890" y="1390" as="targetPoint" />
            <Array as="points" />
          </mxGeometry>
        </mxCell>
        <mxCell id="M5H84TZtUbWAZS--ligj-17" value="添加业务标识：001" style="text;html=1;strokeColor=none;fillColor=none;align=center;verticalAlign=middle;whiteSpace=wrap;rounded=0;hachureGap=12;fontSize=24;fontColor=#666666;" vertex="1" parent="1">
          <mxGeometry x="750" y="1365" width="220" height="30" as="geometry" />
        </mxCell>
        <mxCell id="M5H84TZtUbWAZS--ligj-19" value="新ID" style="text;html=1;strokeColor=none;fillColor=none;align=center;verticalAlign=middle;whiteSpace=wrap;rounded=0;hachureGap=12;fontSize=24;" vertex="1" parent="1">
          <mxGeometry x="590" y="1480" width="80" height="30" as="geometry" />
        </mxCell>
        <mxCell id="M5H84TZtUbWAZS--ligj-20" value="&lt;font style=&quot;font-size: 30px;&quot;&gt;序号ID&lt;/font&gt;&lt;font color=&quot;#ff6666&quot; style=&quot;font-size: 30px;&quot;&gt;不小于&lt;/font&gt;一百亿的场景" style="text;html=1;strokeColor=none;fillColor=none;align=center;verticalAlign=middle;whiteSpace=wrap;rounded=0;shadow=0;glass=0;sketch=0;fillWeight=10;hachureGap=12;jiggle=2;strokeWidth=2;fontFamily=Tahoma;fontSize=30;fontColor=#007FFF;fontStyle=0" vertex="1" parent="1">
          <mxGeometry x="-20" y="990" width="424.99" height="60" as="geometry" />
        </mxCell>
        <mxCell id="M5H84TZtUbWAZS--ligj-21" value="" style="endArrow=none;html=1;rounded=0;fontFamily=Helvetica;fontSize=30;fontColor=#007FFF;strokeWidth=3;strokeColor=#808080;sketch=0;shadow=0;dashed=1;edgeStyle=orthogonalEdgeStyle;" edge="1" parent="1">
          <mxGeometry width="50" height="50" relative="1" as="geometry">
            <mxPoint x="-20" y="930" as="sourcePoint" />
            <mxPoint x="1250" y="930" as="targetPoint" />
          </mxGeometry>
        </mxCell>
      </root>
    </mxGraphModel>
  </diagram>
</mxfile>
